<svg width="36" height="36" viewBox="0 0 36 36" fill="none" xmlns="http://www.w3.org/2000/svg">
<path d="M32.8814 18.8404H31.927C30.6328 12.5667 25.2135 7.78612 18.6464 7.47956C18.6113 7.46657 18.5752 7.45512 18.538 7.44571C17.2486 7.12118 16.3481 5.85918 16.3481 4.37678C16.3481 3.12497 17.3639 2.10648 18.6127 2.10648C19.4955 2.10648 20.2137 2.82676 20.2137 3.71204C20.2137 4.29371 20.6853 4.76529 21.267 4.76529C21.8487 4.76529 22.3202 4.29371 22.3202 3.71204C22.3202 1.66524 20.657 0 18.6127 0C16.2024 0 14.2416 1.96338 14.2416 4.37678C14.2416 5.63196 14.6508 6.79523 15.3488 7.70727C9.68252 8.76943 5.18679 13.2017 4.02359 18.8404H3.06929C1.37687 18.8404 0 20.2163 0 21.9076C0 23.5989 1.37687 24.9748 3.06929 24.9748H4.1009C5.57087 31.2852 11.2336 36 17.9753 36C24.717 36 30.3797 31.2851 31.8497 24.9748H32.8814C34.5738 24.9748 35.9506 23.5989 35.9506 21.9076C35.9506 20.2163 34.5738 18.8404 32.8814 18.8404ZM14.2703 22.7203C13.6886 22.7186 13.2184 22.2458 13.22 21.6641C13.2205 21.5 13.1703 20.6811 12.133 20.6781C12.1312 20.6781 12.1293 20.6781 12.1274 20.6781C11.0954 20.6781 11.0408 21.4941 11.0404 21.6579C11.0387 22.2395 10.5664 22.7116 9.9841 22.7081C9.40243 22.7064 8.93226 22.2335 8.93388 21.6518C8.93654 20.7164 9.30946 19.8893 9.98396 19.323C10.5613 18.8383 11.3226 18.5716 12.1286 18.5716H12.139C12.9488 18.5739 13.7126 18.8452 14.2897 19.3353C14.9609 19.9054 15.3291 20.7345 15.3264 21.67C15.3248 22.2506 14.8535 22.7202 14.2732 22.7202C14.2723 22.7203 14.2714 22.7203 14.2703 22.7203ZM17.9753 31.8044C16.1156 31.8044 14.6026 30.2925 14.6026 28.4339C14.6026 27.8523 15.0742 27.3807 15.6559 27.3807C16.2375 27.3807 16.7091 27.8523 16.7091 28.4339C16.7091 29.1309 17.2771 29.698 17.9753 29.698C18.6735 29.698 19.2415 29.1309 19.2415 28.4339C19.2415 27.8523 19.7131 27.3807 20.2948 27.3807C20.8764 27.3807 21.348 27.8523 21.348 28.4339C21.3479 30.2925 19.835 31.8044 17.9753 31.8044ZM25.9635 22.7203C25.9624 22.7203 25.9614 22.7203 25.9604 22.7203C25.3787 22.7186 24.9085 22.2457 24.9101 21.6641C24.9113 21.2817 24.7702 21.0136 24.479 20.8444C24.0994 20.6238 23.5473 20.6222 23.1663 20.8407C22.8742 21.0083 22.7316 21.2755 22.7305 21.6579C22.7289 22.2386 22.2576 22.7081 21.6773 22.7081C21.6763 22.7081 21.6753 22.7081 21.6743 22.7081C21.0926 22.7064 20.6224 22.2336 20.624 21.6518C20.6272 20.5179 21.1718 19.5562 22.1183 19.0134C23.1585 18.4168 24.5006 18.4206 25.5375 19.0231C26.4807 19.5713 27.0199 20.536 27.0166 21.67C27.015 22.2507 26.5437 22.7203 25.9635 22.7203Z" fill="#1BADFF"/>
</svg>
