<svg width="21" height="26" viewBox="0 0 21 26" fill="none" xmlns="http://www.w3.org/2000/svg">
<path d="M20.0586 3.65625H16.1373L16.5112 1.52344H17.9258C18.3465 1.52344 18.6875 1.18239 18.6875 0.761719C18.6875 0.341047 18.3465 0 17.9258 0H15.8714C15.5015 0 15.185 0.265789 15.1212 0.630195L14.5906 3.65625H0.761719C0.341047 3.65625 0 3.9973 0 4.41797V8.07422C0 8.49489 0.341047 8.83594 0.761719 8.83594H2.05654C2.2618 10.5199 2.40627 11.7043 2.56948 13.0421C5.85305 13.7925 6.40829 15.8438 10.4102 15.8438C14.4044 15.8438 14.9751 13.7917 18.2508 13.0415C18.3595 12.1512 18.6551 9.72694 18.7638 8.83594H20.0586C20.4793 8.83594 20.8203 8.49489 20.8203 8.07422V4.41797C20.8203 3.9973 20.4793 3.65625 20.0586 3.65625Z" fill="#F5BA3C"/>
<path d="M10.4101 17.3673C6.25628 17.3673 5.18962 15.4402 2.76837 14.6725L3.69686 22.2837C3.69686 22.2837 3.69686 22.2838 3.69686 22.2838L4.06807 25.3306C4.11468 25.7127 4.43918 26.0001 4.8242 26.0001H15.9961C16.3811 26.0001 16.7056 25.7127 16.7522 25.3306L16.8768 24.3085C16.8768 24.3085 18.052 14.6715 18.052 14.6714C15.6343 15.4387 14.5638 17.3673 10.4101 17.3673ZM15.3216 24.4766H5.49873L5.31312 22.9532H15.5073C15.4384 23.5181 15.3846 23.9598 15.3216 24.4766Z" fill="#F5BA3C"/>
</svg>
